<svg width="56" height="47" viewBox="0 0 56 47" fill="none" xmlns="http://www.w3.org/2000/svg">
<path d="M19.8086 5.41699H39.5253L37.4669 13.867L19.8086 15.3837V5.41699Z" fill="url(#paint0_linear_111_15785)"/>
<path d="M21.25 19.0667C20.3177 19.0667 19.5625 18.291 19.5625 17.3333L38.2475 15.6644C38.6789 15.6259 39.0381 15.3118 39.1415 14.8799C39.712 12.4953 41.5 4.97067 41.5 4.33333C41.5 3.85493 41.122 3.46667 40.6562 3.46667H19.5625V1.56C19.5625 0.866667 19.5625 1.34507 19.5625 0.866667C19.5625 0.388267 19.1845 0 18.7187 0L15.3438 3.09944e-07C14.878 3.09944e-07 14.5 0.388267 14.5 0.866667C14.5 1.34507 14.878 1.73333 15.3438 1.73333H17.875V17.3333C17.875 19.2478 19.3862 20.8 21.25 20.8L36.505 20.8C36.505 20.8 35.865 19.981 36.3586 20.54L36.505 20.8L34.75 19.24L21.25 19.0667ZM19.5625 5.2H39.8125L37.6551 14.0642L19.5625 15.6V5.2Z" fill="black"/>
<path d="M38.0406 22.62C38.0406 24.4867 36.5674 26 34.75 26C32.9326 26 31.4594 24.4867 31.4594 22.62C31.4594 20.7533 32.9326 19.24 34.75 19.24C36.5674 19.24 38.0406 20.7533 38.0406 22.62ZM33.1414 22.62C33.1414 23.5325 33.8616 24.2723 34.75 24.2723C35.6384 24.2723 36.3586 23.5325 36.3586 22.62C36.3586 21.7075 35.6384 20.9677 34.75 20.9677C33.8616 20.9677 33.1414 21.7075 33.1414 22.62Z" fill="black"/>
<path d="M26.1438 22.62C26.1438 24.4867 24.6705 26 22.8531 26C21.0358 26 19.5625 24.4867 19.5625 22.62C19.5625 20.7533 21.0358 19.24 22.8531 19.24C24.6705 19.24 26.1438 20.7533 26.1438 22.62ZM21.2445 22.62C21.2445 23.5325 21.9647 24.2723 22.8531 24.2723C23.7415 24.2723 24.4617 23.5325 24.4617 22.62C24.4617 21.7075 23.7415 20.9677 22.8531 20.9677C21.9647 20.9677 21.2445 21.7075 21.2445 22.62Z" fill="black"/>
<path d="M3.73926 39.5293H2.5293V44H1.2168V34.0469H2.5293V38.4355H3.55469L7.03418 34.0469H8.66797L4.86719 38.873L8.94824 44H7.3418L3.73926 39.5293ZM9.42676 40.2334C9.42676 39.5088 9.56803 38.8571 9.85059 38.2783C10.1377 37.6995 10.5342 37.2529 11.04 36.9385C11.5505 36.624 12.1315 36.4668 12.7832 36.4668C13.7904 36.4668 14.6038 36.8154 15.2236 37.5127C15.848 38.21 16.1602 39.1374 16.1602 40.2949V40.3838C16.1602 41.1038 16.0212 41.751 15.7432 42.3252C15.4697 42.8949 15.0755 43.3392 14.5605 43.6582C14.0501 43.9772 13.4622 44.1367 12.7969 44.1367C11.7943 44.1367 10.9808 43.7881 10.3564 43.0908C9.73665 42.3936 9.42676 41.4707 9.42676 40.3223V40.2334ZM10.6982 40.3838C10.6982 41.2041 10.8874 41.8626 11.2656 42.3594C11.6484 42.8561 12.1589 43.1045 12.7969 43.1045C13.4395 43.1045 13.9499 42.8538 14.3281 42.3525C14.7064 41.8467 14.8955 41.1403 14.8955 40.2334C14.8955 39.4222 14.7018 38.766 14.3145 38.2646C13.9316 37.7588 13.4212 37.5059 12.7832 37.5059C12.1589 37.5059 11.6553 37.7542 11.2725 38.251C10.8896 38.7477 10.6982 39.4587 10.6982 40.3838ZM23.9941 40.3838C23.9941 41.5094 23.7367 42.4163 23.2217 43.1045C22.7067 43.7926 22.0094 44.1367 21.1299 44.1367C20.2321 44.1367 19.5257 43.8519 19.0107 43.2822V46.8438H17.7461V36.6035H18.9014L18.9629 37.4238C19.4779 36.7858 20.1934 36.4668 21.1094 36.4668C21.998 36.4668 22.6999 36.8018 23.2148 37.4717C23.7344 38.1416 23.9941 39.0736 23.9941 40.2676V40.3838ZM22.7295 40.2402C22.7295 39.4062 22.5518 38.7477 22.1963 38.2646C21.8408 37.7816 21.3532 37.54 20.7334 37.54C19.9678 37.54 19.3936 37.8796 19.0107 38.5586V42.0928C19.389 42.7673 19.9678 43.1045 20.7471 43.1045C21.3532 43.1045 21.834 42.8652 22.1895 42.3867C22.5495 41.9036 22.7295 41.1882 22.7295 40.2402ZM29.6748 38.627C29.6748 38.2806 29.5426 38.0072 29.2783 37.8066C29.014 37.6016 28.6517 37.499 28.1914 37.499C27.7448 37.499 27.3711 37.6152 27.0703 37.8477C26.7741 38.0801 26.626 38.3535 26.626 38.668H25.3682C25.3682 38.0254 25.637 37.499 26.1748 37.0889C26.7126 36.6787 27.3848 36.4736 28.1914 36.4736C29.0573 36.4736 29.7318 36.6605 30.2148 37.0342C30.6979 37.4033 30.9395 37.932 30.9395 38.6201C30.9395 38.9528 30.8392 39.2581 30.6387 39.5361C30.4382 39.8141 30.1533 40.0352 29.7842 40.1992C30.6455 40.4909 31.0762 41.0651 31.0762 41.9219C31.0762 42.6009 30.8141 43.1387 30.29 43.5352C29.766 43.9316 29.0664 44.1299 28.1914 44.1299C27.3392 44.1299 26.6351 43.9225 26.0791 43.5078C25.5277 43.0885 25.252 42.5234 25.252 41.8125H26.5098C26.5098 42.1725 26.6693 42.4824 26.9883 42.7422C27.3118 42.9974 27.7129 43.125 28.1914 43.125C28.6745 43.125 29.0641 43.0133 29.3604 42.79C29.6566 42.5667 29.8047 42.2773 29.8047 41.9219C29.8047 41.5072 29.6794 41.2109 29.4287 41.0332C29.1826 40.8509 28.7975 40.7598 28.2734 40.7598H27.0088V39.6934H28.3828C29.2441 39.6706 29.6748 39.3151 29.6748 38.627ZM37.502 36.6035H38.7666V44H37.502V38.6064L34.0908 44H32.8262V36.6035H34.0908V42.0039L37.502 36.6035ZM46.8398 44H45.5752V40.8418H42.1777V44H40.9062V36.6035H42.1777V39.8096H45.5752V36.6035H46.8398V44ZM53.4434 44C53.3704 43.8542 53.3112 43.5944 53.2656 43.2207C52.6777 43.8314 51.9759 44.1367 51.1602 44.1367C50.431 44.1367 49.8317 43.9316 49.3623 43.5215C48.8975 43.1068 48.665 42.5827 48.665 41.9492C48.665 41.179 48.9567 40.582 49.54 40.1582C50.1279 39.7298 50.9528 39.5156 52.0146 39.5156H53.2451V38.9346C53.2451 38.4925 53.113 38.1416 52.8486 37.8818C52.5843 37.6175 52.1947 37.4854 51.6797 37.4854C51.2285 37.4854 50.8503 37.5993 50.5449 37.8271C50.2396 38.055 50.0869 38.3307 50.0869 38.6543H48.8154C48.8154 38.2852 48.9453 37.9297 49.2051 37.5879C49.4694 37.2415 49.8249 36.9681 50.2715 36.7676C50.7227 36.5671 51.2171 36.4668 51.7549 36.4668C52.6071 36.4668 53.2747 36.681 53.7578 37.1094C54.2409 37.5332 54.4915 38.1188 54.5098 38.8662V42.2705C54.5098 42.9495 54.5964 43.4896 54.7695 43.8906V44H53.4434ZM51.3447 43.0361C51.7412 43.0361 52.1172 42.9336 52.4727 42.7285C52.8281 42.5234 53.0856 42.2568 53.2451 41.9287V40.4111H52.2539C50.7044 40.4111 49.9297 40.8646 49.9297 41.7715C49.9297 42.168 50.0618 42.4779 50.3262 42.7012C50.5905 42.9245 50.93 43.0361 51.3447 43.0361Z" fill="black"/>
<defs>
<linearGradient id="paint0_linear_111_15785" x1="8.8412" y1="-1.50431" x2="41.9252" y2="6.27193" gradientUnits="userSpaceOnUse">
<stop stop-color="#F64D4D"/>
<stop offset="1" stop-color="#4D5EF6"/>
</linearGradient>
</defs>
</svg>
